<svg width="17" height="17" viewBox="0 0 17 17" fill="none" xmlns="http://www.w3.org/2000/svg">
<g id="charm:menu-kebab">
<g id="Group">
<path id="Vector" d="M8.5 3.75C8.91421 3.75 9.25 3.41421 9.25 3C9.25 2.58579 8.91421 2.25 8.5 2.25C8.08579 2.25 7.75 2.58579 7.75 3C7.75 3.41421 8.08579 3.75 8.5 3.75Z" stroke="#979C9E" stroke-width="1.5" stroke-linecap="round" stroke-linejoin="round"/>
<path id="Vector_2" d="M8.5 9.25C8.91421 9.25 9.25 8.91421 9.25 8.5C9.25 8.08579 8.91421 7.75 8.5 7.75C8.08579 7.75 7.75 8.08579 7.75 8.5C7.75 8.91421 8.08579 9.25 8.5 9.25Z" stroke="#979C9E" stroke-width="1.5" stroke-linecap="round" stroke-linejoin="round"/>
<path id="Vector_3" d="M8.5 14.75C8.91421 14.75 9.25 14.4142 9.25 14C9.25 13.5858 8.91421 13.25 8.5 13.25C8.08579 13.25 7.75 13.5858 7.75 14C7.75 14.4142 8.08579 14.75 8.5 14.75Z" stroke="#979C9E" stroke-width="1.5" stroke-linecap="round" stroke-linejoin="round"/>
</g>
</g>
</svg>
