<svg width="17" height="16" viewBox="0 0 17 16" fill="none" xmlns="http://www.w3.org/2000/svg">
<g id="fluent:attach-16-regular">
<path id="Vector" d="M2.7832 7.975C2.78303 8.07402 2.81226 8.17086 2.86718 8.25325C2.92211 8.33564 3.00027 8.39986 3.09174 8.43778C3.18321 8.4757 3.28389 8.4856 3.38099 8.46623C3.4781 8.44687 3.56727 8.3991 3.6372 8.329L8.2322 3.732C8.70111 3.26309 9.33708 2.99967 10.0002 2.99967C10.3286 2.99967 10.6537 3.06434 10.957 3.18999C11.2604 3.31565 11.536 3.49982 11.7682 3.732C12.0004 3.96417 12.1846 4.23981 12.3102 4.54316C12.4359 4.84651 12.5005 5.17165 12.5005 5.5C12.5005 5.82834 12.4359 6.15348 12.3102 6.45683C12.1846 6.76018 12.0004 7.03582 11.7682 7.268L6.4652 12.571C6.2766 12.7532 6.024 12.8539 5.7618 12.8517C5.49961 12.8494 5.24879 12.7442 5.06339 12.5588C4.87798 12.3734 4.77281 12.1226 4.77053 11.8604C4.76825 11.5982 4.86905 11.3456 5.0512 11.157L10.3542 5.854C10.4007 5.80751 10.4376 5.75232 10.4627 5.69158C10.4879 5.63084 10.5008 5.56574 10.5008 5.5C10.5008 5.43425 10.4879 5.36915 10.4627 5.30841C10.4376 5.24767 10.4007 5.19248 10.3542 5.146C10.3077 5.09951 10.2525 5.06263 10.1918 5.03747C10.131 5.01231 10.0659 4.99936 10.0002 4.99936C9.93446 4.99936 9.86936 5.01231 9.80862 5.03747C9.74788 5.06263 9.69269 5.09951 9.6462 5.146L4.3432 10.45C4.15218 10.6345 3.99982 10.8552 3.895 11.0992C3.79018 11.3432 3.73501 11.6056 3.7327 11.8712C3.7304 12.1368 3.781 12.4001 3.88156 12.6459C3.98212 12.8917 4.13063 13.115 4.31841 13.3028C4.5062 13.4906 4.7295 13.6391 4.9753 13.7396C5.22109 13.8402 5.48445 13.8908 5.75001 13.8885C6.01557 13.8862 6.278 13.831 6.52201 13.7262C6.76602 13.6214 6.98671 13.469 7.1712 13.278L12.4742 7.975C13.1306 7.31858 13.4994 6.4283 13.4994 5.5C13.4994 4.57169 13.1306 3.68141 12.4742 3.025C11.8178 2.36858 10.9275 1.99982 9.9992 1.99982C9.0709 1.99982 8.18061 2.36858 7.5242 3.025L2.9302 7.621C2.88371 7.66745 2.84688 7.72264 2.82182 7.7834C2.79676 7.84416 2.78298 7.90927 2.7832 7.975Z" fill="white"/>
</g>
</svg>
