<svg width="39" height="39" viewBox="0 0 39 39" fill="none" xmlns="http://www.w3.org/2000/svg">
<g id="fluent-mdl2:completed-solid" clip-path="url(#clip0_71_4626)">
<path id="Vector" d="M19.5 0C21.29 0 23.0166 0.228516 24.6797 0.685547C26.3428 1.14258 27.8916 1.80273 29.3262 2.66602C30.7607 3.5293 32.0747 4.54492 33.2681 5.71289C34.4614 6.88086 35.4834 8.19482 36.334 9.65479C37.1846 11.1147 37.8384 12.6699 38.2954 14.3203C38.7524 15.9707 38.9873 17.6973 39 19.5C39 21.29 38.7715 23.0166 38.3145 24.6797C37.8574 26.3428 37.1973 27.8916 36.334 29.3262C35.4707 30.7607 34.4551 32.0747 33.2871 33.2681C32.1191 34.4614 30.8052 35.4834 29.3452 36.334C27.8853 37.1846 26.3301 37.8384 24.6797 38.2954C23.0293 38.7524 21.3027 38.9873 19.5 39C17.71 39 15.9834 38.7715 14.3203 38.3145C12.6572 37.8574 11.1084 37.1973 9.67383 36.334C8.23926 35.4707 6.92529 34.4551 5.73193 33.2871C4.53857 32.1191 3.5166 30.8052 2.66602 29.3452C1.81543 27.8853 1.16162 26.3301 0.70459 24.6797C0.247559 23.0293 0.0126953 21.3027 0 19.5C0 17.71 0.228516 15.9834 0.685547 14.3203C1.14258 12.6572 1.80273 11.1084 2.66602 9.67383C3.5293 8.23926 4.54492 6.92529 5.71289 5.73193C6.88086 4.53857 8.19482 3.5166 9.65479 2.66602C11.1147 1.81543 12.6699 1.16162 14.3203 0.70459C15.9707 0.247559 17.6973 0.0126953 19.5 0ZM30.9829 13.0444L28.3931 10.4546L15.8438 23.0039L10.6069 17.7671L8.01709 20.3569L15.8438 28.1836L30.9829 13.0444Z" fill="#FDFAFA"/>
</g>
<defs>
<clipPath id="clip0_71_4626">
<rect width="39" height="39" fill="white"/>
</clipPath>
</defs>
</svg>
