<svg width="32" height="32" viewBox="0 0 32 32" fill="none" xmlns="http://www.w3.org/2000/svg">
<g id="fluent-mdl2:add-work">
<path id="Vector" d="M32 5.99999V22H30V13.1094L20 18.125V20H12V18.125L2 13.1094V24H20V26H0V5.99999H10V3.99999C10 3.71874 10.0521 3.45832 10.1562 3.21874C10.2604 2.97916 10.401 2.77082 10.5781 2.59374C10.7552 2.41666 10.9688 2.27082 11.2188 2.15624C11.4688 2.04166 11.7292 1.98957 12 1.99999H20C20.2812 1.99999 20.5417 2.05207 20.7812 2.15624C21.0208 2.26041 21.2292 2.40103 21.4062 2.57811C21.5833 2.7552 21.7292 2.96874 21.8438 3.21874C21.9583 3.46874 22.0104 3.72916 22 3.99999V5.99999H32ZM12 5.99999H20V3.99999H12V5.99999ZM18 16H14V18H18V16ZM30 10.8906V7.99999H2V10.8906L12 15.875V14H20V15.875L30 10.8906ZM28 24H32V26H28V30H26V26H22V24H26V20H28V24Z" fill="white"/>
</g>
</svg>
