<svg width="76" height="76" viewBox="0 0 76 76" fill="none" xmlns="http://www.w3.org/2000/svg">
<g id="Group 2608549" filter="url(#filter0_dd_19_2325)">
<rect id="Rectangle 3463550" x="10" y="9" width="56" height="56" rx="8" fill="#FF8201"/>
<g id="Group 2608545">
<circle id="Ellipse 293" cx="38" cy="37" r="28" fill="#FF8201"/>
<path id="Vector" d="M40.5481 41.028L40.5561 44.028C40.5571 44.4258 40.4001 44.8077 40.1196 45.0898C39.839 45.3719 39.4579 45.5309 39.0601 45.532L28.5601 45.56L24.0722 50.072L24.0321 35.0721C24.031 34.6743 24.188 34.2923 24.4686 34.0103C24.7491 33.7282 25.1302 33.5692 25.5281 33.5681L28.528 33.5601M51.044 39.4999L46.532 35.012L36.032 35.04C35.6342 35.0411 35.2523 34.8841 34.9702 34.6035C34.6881 34.323 34.5291 33.9419 34.528 33.544L34.504 24.5441C34.5029 24.1463 34.6599 23.7643 34.9405 23.4822C35.221 23.2002 35.6021 23.0411 36 23.0401L49.4999 23.004C49.8977 23.0029 50.2797 23.1599 50.5617 23.4405C50.8438 23.721 51.0028 24.1022 51.0039 24.5L51.044 39.4999Z" stroke="white" stroke-width="2" stroke-linecap="round" stroke-linejoin="round"/>
</g>
</g>
<defs>
<filter id="filter0_dd_19_2325" x="0" y="0" width="76" height="76" filterUnits="userSpaceOnUse" color-interpolation-filters="sRGB">
<feFlood flood-opacity="0" result="BackgroundImageFix"/>
<feColorMatrix in="SourceAlpha" type="matrix" values="0 0 0 0 0 0 0 0 0 0 0 0 0 0 0 0 0 0 127 0" result="hardAlpha"/>
<feMorphology radius="2" operator="dilate" in="SourceAlpha" result="effect1_dropShadow_19_2325"/>
<feOffset dy="1"/>
<feGaussianBlur stdDeviation="4"/>
<feColorMatrix type="matrix" values="0 0 0 0 0.0784314 0 0 0 0 0.0784314 0 0 0 0 0.0784314 0 0 0 0.08 0"/>
<feBlend mode="normal" in2="BackgroundImageFix" result="effect1_dropShadow_19_2325"/>
<feColorMatrix in="SourceAlpha" type="matrix" values="0 0 0 0 0 0 0 0 0 0 0 0 0 0 0 0 0 0 127 0" result="hardAlpha"/>
<feOffset/>
<feGaussianBlur stdDeviation="0.5"/>
<feColorMatrix type="matrix" values="0 0 0 0 0.0784314 0 0 0 0 0.0784314 0 0 0 0 0.0784314 0 0 0 0.08 0"/>
<feBlend mode="normal" in2="effect1_dropShadow_19_2325" result="effect2_dropShadow_19_2325"/>
<feBlend mode="normal" in="SourceGraphic" in2="effect2_dropShadow_19_2325" result="shape"/>
</filter>
</defs>
</svg>
