<svg width="36" height="36" viewBox="0 0 36 36" fill="none" xmlns="http://www.w3.org/2000/svg">
<g id="ic:round-done-all">
<path id="Vector" d="M25.95 9.45C25.8112 9.31094 25.6464 9.20062 25.4649 9.12535C25.2834 9.05008 25.0889 9.01133 24.8925 9.01133C24.696 9.01133 24.5015 9.05008 24.32 9.12535C24.1386 9.20062 23.9737 9.31094 23.835 9.45L15.375 17.91L17.49 20.025L25.95 11.55C26.52 10.98 26.52 10.02 25.95 9.45ZM32.31 9.435L17.49 24.255L12.27 19.05C11.9895 18.7695 11.6091 18.612 11.2125 18.612C10.8158 18.612 10.4354 18.7695 10.155 19.05C9.87449 19.3305 9.71693 19.7109 9.71693 20.1075C9.71693 20.5041 9.87449 20.8845 10.155 21.165L16.425 27.435C17.01 28.02 17.955 28.02 18.54 27.435L34.425 11.565C34.564 11.4262 34.6743 11.2614 34.7496 11.0799C34.8249 10.8985 34.8636 10.704 34.8636 10.5075C34.8636 10.311 34.8249 10.1165 34.7496 9.93506C34.6743 9.7536 34.564 9.58877 34.425 9.45H34.41C34.2746 9.3084 34.1122 9.19543 33.9324 9.11779C33.7526 9.04015 33.559 8.99942 33.3631 8.99802C33.1673 8.99662 32.9731 9.03458 32.7922 9.10965C32.6113 9.18471 32.4473 9.29535 32.31 9.435ZM1.67996 21.18L7.94996 27.45C8.53496 28.035 9.47996 28.035 10.065 27.45L11.115 26.4L3.79496 19.05C3.65619 18.9109 3.49136 18.8006 3.3099 18.7253C3.12844 18.6501 2.93391 18.6113 2.73746 18.6113C2.54101 18.6113 2.34648 18.6501 2.16502 18.7253C1.98356 18.8006 1.81873 18.9109 1.67996 19.05C1.09496 19.635 1.09496 20.595 1.67996 21.18Z" fill="white"/>
</g>
</svg>
