<svg width="17" height="16" viewBox="0 0 17 16" fill="none" xmlns="http://www.w3.org/2000/svg">
<g id="ic:sharp-block">
<path id="Vector" d="M8.5026 1.33203C4.8226 1.33203 1.83594 4.3187 1.83594 7.9987C1.83594 11.6787 4.8226 14.6654 8.5026 14.6654C12.1826 14.6654 15.1693 11.6787 15.1693 7.9987C15.1693 4.3187 12.1826 1.33203 8.5026 1.33203ZM3.16927 7.9987C3.16927 5.05203 5.55594 2.66536 8.5026 2.66536C9.73594 2.66536 10.8693 3.08536 11.7693 3.79203L4.29594 11.2654C3.56378 10.3341 3.16686 9.18329 3.16927 7.9987ZM8.5026 13.332C7.26927 13.332 6.13594 12.912 5.23594 12.2054L12.7093 4.73203C13.4414 5.66327 13.8383 6.81411 13.8359 7.9987C13.8359 10.9454 11.4493 13.332 8.5026 13.332Z" fill="white"/>
</g>
</svg>
