<svg width="25" height="25" viewBox="0 0 25 25" fill="none" xmlns="http://www.w3.org/2000/svg">
<g id="majesticons:search-line">
<path id="Vector" d="M20.5004 20.5004L16.4504 16.4504M16.4504 16.4504C17.1004 15.8003 17.616 15.0286 17.9678 14.1793C18.3196 13.33 18.5007 12.4197 18.5007 11.5004C18.5007 10.5811 18.3196 9.67076 17.9678 8.82144C17.616 7.97211 17.1004 7.2004 16.4504 6.55036C15.8003 5.90031 15.0286 5.38467 14.1793 5.03287C13.33 4.68107 12.4197 4.5 11.5004 4.5C10.5811 4.5 9.67076 4.68107 8.82144 5.03287C7.97211 5.38467 7.2004 5.90031 6.55036 6.55036C5.23754 7.86318 4.5 9.64375 4.5 11.5004C4.5 13.357 5.23754 15.1375 6.55036 16.4504C7.86318 17.7632 9.64375 18.5007 11.5004 18.5007C13.357 18.5007 15.1375 17.7632 16.4504 16.4504Z" stroke="#979C9E" stroke-width="2" stroke-linecap="round" stroke-linejoin="round"/>
</g>
</svg>
