<svg width="32" height="32" viewBox="0 0 32 32" fill="none" xmlns="http://www.w3.org/2000/svg">
<g id="mdi:emoji-outline">
<path id="Vector" d="M9.96334 19.167H22.0323C20.8828 21.3422 18.6224 22.8337 15.9993 22.8337C13.3745 22.8337 11.1041 21.3407 9.96334 19.167ZM12.3933 13.7277C12.112 14.009 11.7305 14.167 11.3327 14.167C10.9349 14.167 10.5533 14.009 10.272 13.7277C9.99072 13.4463 9.83268 13.0648 9.83268 12.667C9.83268 12.2692 9.99072 11.8876 10.272 11.6063C10.5533 11.325 10.9349 11.167 11.3327 11.167C11.7305 11.167 12.112 11.325 12.3933 11.6063C12.6746 11.8876 12.8327 12.2692 12.8327 12.667C12.8327 13.0648 12.6746 13.4463 12.3933 13.7277ZM21.7267 13.7277C21.4454 14.009 21.0638 14.167 20.666 14.167C20.2682 14.167 19.8867 14.009 19.6054 13.7277C19.3241 13.4463 19.166 13.0648 19.166 12.667C19.166 12.2692 19.3241 11.8876 19.6054 11.6063C19.8867 11.325 20.2682 11.167 20.666 11.167C21.0638 11.167 21.4454 11.325 21.7267 11.6063C22.008 11.8876 22.166 12.2692 22.166 12.667C22.166 13.0648 22.008 13.4463 21.7267 13.7277ZM8.10332 23.8964C10.1975 25.9905 13.0378 27.167 15.9993 27.167C18.9609 27.167 21.8012 25.9905 23.8954 23.8964C25.9895 21.8022 27.166 18.9619 27.166 16.0003C27.166 13.0387 25.9895 10.1985 23.8954 8.1043C21.8012 6.01014 18.9609 4.83366 15.9993 4.83366C13.0378 4.83366 10.1975 6.01014 8.10332 8.1043C6.00917 10.1985 4.83268 13.0387 4.83268 16.0003C4.83268 18.9619 6.00917 21.8022 8.10332 23.8964ZM3.16602 16.0003C3.16602 8.94216 8.90313 3.16699 15.9993 3.16699C17.6846 3.16699 19.3534 3.49894 20.9105 4.14387C22.4675 4.78881 23.8822 5.7341 25.0739 6.92579C26.2656 8.11747 27.2109 9.53221 27.8558 11.0892C28.5007 12.6462 28.8327 14.315 28.8327 16.0003C28.8327 19.4039 27.4806 22.6681 25.0739 25.0749C22.6672 27.4816 19.403 28.8337 15.9993 28.8337C14.3141 28.8337 12.6453 28.5017 11.0882 27.8568C9.53123 27.2118 8.1165 26.2665 6.92481 25.0749C4.5181 22.6681 3.16602 19.4039 3.16602 16.0003Z" fill="#FF8201" stroke="#FF8201"/>
</g>
</svg>
