<svg width="85" height="85" viewBox="0 0 85 85" fill="none" xmlns="http://www.w3.org/2000/svg">
<g id="mdi:company">
<path id="Vector" d="M63.7507 53.125H56.6673V60.2083H63.7507M63.7507 38.9583H56.6673V46.0417H63.7507M70.834 67.2917H42.5007V60.2083H49.584V53.125H42.5007V46.0417H49.584V38.9583H42.5007V31.875H70.834M35.4173 24.7917H28.334V17.7083H35.4173M35.4173 38.9583H28.334V31.875H35.4173M35.4173 53.125H28.334V46.0417H35.4173M35.4173 67.2917H28.334V60.2083H35.4173M21.2507 24.7917H14.1673V17.7083H21.2507M21.2507 38.9583H14.1673V31.875H21.2507M21.2507 53.125H14.1673V46.0417H21.2507M21.2507 67.2917H14.1673V60.2083H21.2507M42.5007 24.7917V10.625H7.08398V74.375H77.9173V24.7917H42.5007Z" fill="white"/>
</g>
</svg>
