<svg width="25" height="25" viewBox="0 0 25 25" fill="none" xmlns="http://www.w3.org/2000/svg">
<g id="mingcute:notification-off-line">
<g clip-path="url(#clip0_213_11642)">
<g id="Group">
<path id="Vector" d="M15.5007 19.5C15.5008 20.0046 15.3103 20.4906 14.9672 20.8605C14.6241 21.2305 14.1538 21.4572 13.6507 21.495L13.5007 21.5H11.5007C10.9963 21.4999 10.5105 21.3092 10.1407 20.9662C9.77098 20.6231 9.54449 20.153 9.50666 19.65L9.50066 19.5H15.5007ZM12.5007 2.5C14.3156 2.49997 16.0597 3.2049 17.3649 4.46608C18.6701 5.72726 19.4344 7.44609 19.4967 9.26L19.5007 9.5V13.264L21.3227 16.908C21.4022 17.067 21.442 17.2429 21.4386 17.4206C21.4353 17.5984 21.3889 17.7727 21.3035 17.9286C21.2181 18.0845 21.0962 18.2174 20.9481 18.3158C20.8001 18.4143 20.6305 18.4754 20.4537 18.494L20.3387 18.5H19.9147L20.9857 19.571C21.165 19.751 21.2691 19.9924 21.2769 20.2464C21.2846 20.5003 21.1954 20.7477 21.0274 20.9383C20.8594 21.1288 20.6251 21.2483 20.3722 21.2724C20.1193 21.2965 19.8667 21.2234 19.6657 21.068L19.5717 20.985L4.01566 5.43C3.83632 5.25004 3.73219 5.00857 3.72443 4.75462C3.71668 4.50067 3.80588 4.25329 3.97391 4.06272C4.14195 3.87216 4.37621 3.7527 4.62914 3.7286C4.88206 3.70451 5.13467 3.77759 5.33566 3.933L5.42966 4.016L6.82166 5.408C7.46965 4.50725 8.32277 3.77371 9.31047 3.26803C10.2982 2.76236 11.392 2.49909 12.5017 2.5H12.5007ZM5.52366 8.927L7.50066 10.904V13.264C7.50064 13.5743 7.4284 13.8804 7.28966 14.158L6.11966 16.5H13.0967L15.0967 18.5H4.66266C4.47514 18.5 4.29072 18.4521 4.12693 18.3608C3.96314 18.2695 3.8254 18.1379 3.72681 17.9783C3.62822 17.8188 3.57204 17.6368 3.56361 17.4494C3.55518 17.2621 3.59479 17.0757 3.67866 16.908L5.50066 13.264V9.5C5.50066 9.307 5.50866 9.116 5.52366 8.927ZM12.5007 4.5C11.653 4.49957 10.8192 4.71476 10.0777 5.12534C9.33611 5.53592 8.71118 6.12838 8.26166 6.847L17.9147 16.5H18.8827L17.7127 14.158C17.5736 13.8805 17.501 13.5744 17.5007 13.264V9.5C17.5007 8.17392 16.9739 6.90215 16.0362 5.96447C15.0985 5.02679 13.8267 4.5 12.5007 4.5Z" fill="#979C9E"/>
</g>
</g>
</g>
<defs>
<clipPath id="clip0_213_11642">
<rect x="0.5" y="0.5" width="24" height="24" rx="8" fill="white"/>
</clipPath>
</defs>
</svg>
