<svg width="26" height="26" viewBox="0 0 26 26" fill="none" xmlns="http://www.w3.org/2000/svg">
<g id="Iconsax/Linear/notification">
<path id="Vector" d="M13.0216 3.15253C9.43581 3.15253 6.52164 6.06669 6.52164 9.65253V12.7834C6.52164 13.4442 6.23997 14.4517 5.90414 15.015L4.65831 17.0842C3.88914 18.3625 4.41997 19.7817 5.82831 20.2584C10.4975 21.8184 15.535 21.8184 20.2041 20.2584C21.515 19.825 22.0891 18.2759 21.3741 17.0842L20.1283 15.015C19.8033 14.4517 19.5216 13.4442 19.5216 12.7834V9.65253C19.5216 6.07753 16.5966 3.15253 13.0216 3.15253Z" stroke="#979C9E" stroke-width="1.5" stroke-miterlimit="10" stroke-linecap="round"/>
<path id="Vector_2" d="M15.0259 3.46668C13.7158 3.09357 12.3276 3.09357 11.0175 3.46668C11.3317 2.66502 12.1117 2.10168 13.0217 2.10168C13.9317 2.10168 14.7117 2.66502 15.0259 3.46668Z" stroke="#979C9E" stroke-width="1.5" stroke-miterlimit="10" stroke-linecap="round" stroke-linejoin="round"/>
<path id="Vector_3" d="M16.2717 20.6483C16.2717 22.4358 14.8092 23.8983 13.0217 23.8983C12.1333 23.8983 11.31 23.53 10.725 22.945C10.1163 22.3354 9.77361 21.5097 9.77167 20.6483" stroke="#979C9E" stroke-width="1.5" stroke-miterlimit="10"/>
</g>
</svg>
