<svg width="32" height="32" viewBox="0 0 32 32" fill="none" xmlns="http://www.w3.org/2000/svg">
<g id="pajamas:media">
<path id="Vector" d="M14.4243 21.9892L19 16.7593L23.5 21.9019V23.5H8.5V21.781L10.9999 18.7812L13.6638 21.98L14.0386 22.4301L14.4243 21.9892ZM26 4.5H6C5.60217 4.5 5.22064 4.65804 4.93934 4.93934C4.65804 5.22064 4.5 5.60217 4.5 6V26C4.5 26.3978 4.65804 26.7794 4.93934 27.0607C5.22065 27.342 5.60218 27.5 6 27.5H26C26.3978 27.5 26.7794 27.342 27.0607 27.0607C27.342 26.7794 27.5 26.3978 27.5 26V6C27.5 5.60218 27.342 5.22065 27.0607 4.93934C26.7794 4.65804 26.3978 4.5 26 4.5ZM3.52513 3.52513C4.1815 2.86875 5.07174 2.5 6 2.5H26C26.9283 2.5 27.8185 2.86875 28.4749 3.52513C29.1313 4.1815 29.5 5.07174 29.5 6V26C29.5 26.9283 29.1313 27.8185 28.4749 28.4749C27.8185 29.1313 26.9283 29.5 26 29.5H6C5.07174 29.5 4.1815 29.1313 3.52513 28.4749C2.86875 27.8185 2.5 26.9283 2.5 26V6C2.5 5.07174 2.86875 4.1815 3.52513 3.52513ZM14.7678 14.7678C14.2989 15.2366 13.663 15.5 13 15.5C12.337 15.5 11.7011 15.2366 11.2322 14.7678C10.7634 14.2989 10.5 13.663 10.5 13C10.5 12.337 10.7634 11.7011 11.2322 11.2322C11.7011 10.7634 12.337 10.5 13 10.5C13.663 10.5 14.2989 10.7634 14.7678 11.2322C15.2366 11.7011 15.5 12.337 15.5 13C15.5 13.663 15.2366 14.2989 14.7678 14.7678Z" fill="#FF8201" stroke="#FF8201"/>
</g>
</svg>
