<svg width="77" height="77" viewBox="0 0 77 77" fill="none" xmlns="http://www.w3.org/2000/svg">
<g id="svgexport-6 (2) 1" clip-path="url(#clip0_55_296)">
<g id="Group">
<path id="Vector" d="M76.218 50.7598C75.2555 49.2319 73.5711 48.3776 71.8626 48.3897V17.7822C71.8626 17.1325 71.3453 16.6151 70.6956 16.6151H64.0544C63.4047 16.6151 62.8873 17.1325 62.8873 17.7822V51.9509L58.3034 54.0323V25.5784C58.3034 24.9287 57.7861 24.4114 57.1364 24.4114H50.4952C49.8455 24.4114 49.3281 24.9287 49.3281 25.5784V51.5178C49.1958 51.5058 49.0634 51.4817 48.9191 51.4817H44.7322V31.7144C44.7322 31.0647 44.2148 30.5473 43.5652 30.5473H36.9359C36.2862 30.5473 35.7689 31.0647 35.7689 31.7144V50.6515L31.173 48.2333V38.7165C31.173 38.0669 30.6556 37.5495 30.0059 37.5495H23.3767C22.727 37.5495 22.2097 38.0669 22.2097 38.7165V45.6225H17.5416V43.5772C17.5416 42.9275 17.0242 42.4101 16.3745 42.4101H3.21234C2.59874 42.4101 2.09343 42.8794 2.04531 43.493L-5.55255e-06 70.3948C-0.0240681 70.7197 0.0842132 71.0325 0.312807 71.2731C0.529369 71.5137 0.842182 71.6461 1.16703 71.6461H16.3745C17.0242 71.6461 17.5416 71.1287 17.5416 70.479V68.3375H22.7752C23.1842 68.3375 23.5812 68.4097 23.9662 68.554L38.115 73.6673C39.1497 74.0403 40.2205 74.2208 41.2912 74.2208C42.8072 74.2208 44.3111 73.8598 45.6586 73.1259L74.2809 58.0026C75.1024 57.5668 75.7895 56.9153 76.2686 56.1183C76.7476 55.3213 77.0005 54.4088 77 53.4789C77 52.5044 76.7353 51.5659 76.218 50.7598ZM65.2214 18.9492H69.5286V48.919L65.2214 50.8801V18.9492ZM51.6742 26.7455H55.9814V55.1031L53.3947 56.2822C53.4067 56.1739 53.4308 56.0656 53.4308 55.9573C53.4308 54.5256 52.733 53.2503 51.6862 52.4322V26.7455H51.6742ZM42.4102 32.8814V51.4697H38.2112C38.1752 51.4697 38.1391 51.4576 38.115 51.4576V32.8814H42.4102ZM24.5437 39.8836H28.8389V47.0061L27.4914 46.2962C26.6492 45.8511 25.7108 45.6225 24.7723 45.6225H24.5437V39.8836ZM15.2075 69.312H2.43031L4.29515 44.7442H15.2075V69.312ZM73.1981 55.9333L44.5637 71.0565C42.8312 71.983 40.7619 72.1273 38.897 71.4536L24.7603 66.3403C24.1235 66.1109 23.452 65.9929 22.7752 65.9914H17.5416V47.9445H24.7723C25.3378 47.9445 25.9033 48.0889 26.4086 48.3536L35.4802 53.13C36.3223 53.5631 37.2728 53.8037 38.1992 53.8037H48.9311C50.1222 53.8037 51.0847 54.7662 51.0847 55.9453C51.0847 56.6792 50.7358 57.1845 50.4591 57.4733C50.3267 57.6056 50.1583 57.7259 49.9778 57.8342L49.8334 57.9064C49.5447 58.0387 49.2439 58.1109 48.9431 58.1109H35.1072C32.8453 58.1109 31.0166 59.9517 31.0166 62.2015C31.0166 62.8512 31.5339 63.3686 32.1836 63.3686C32.8333 63.3686 33.3506 62.8512 33.3506 62.2015C33.3506 61.227 34.1447 60.445 35.1072 60.445H48.9431C49.5808 60.445 50.2184 60.3006 50.808 60.0359L51.0486 59.9276C51.0486 59.9276 51.0606 59.9276 51.0606 59.9156L57.5936 56.9439C57.6056 56.9439 57.6056 56.9319 57.6176 56.9319L64.5116 53.7917C64.5236 53.7917 64.5356 53.7797 64.5356 53.7797L70.7437 50.9523C72.007 50.3748 73.5109 50.832 74.2569 52.0111C74.5336 52.4442 74.678 52.9615 74.678 53.4909C74.6728 53.9933 74.5327 54.485 74.2724 54.9147C74.012 55.3443 73.641 55.6961 73.1981 55.9333Z" fill="#FF8201"/>
<path id="Vector_2" d="M26.6853 34.1928C26.9861 34.1928 27.2869 34.0845 27.5155 33.8559L40.7378 20.6336H53.8278C54.1406 20.6336 54.4294 20.5133 54.658 20.2967L68.0608 6.86984L67.9525 9.87765C67.9284 10.5273 68.4337 11.0567 69.0714 11.0808H69.1195C69.7452 11.0808 70.2625 10.5875 70.2866 9.96187L70.5031 3.98234V3.95828C70.5031 3.83796 70.4791 3.71765 70.443 3.59734C70.4309 3.57328 70.4309 3.53718 70.4309 3.50109C70.3708 3.35671 70.2866 3.22437 70.1783 3.10406C70.058 2.98374 69.9256 2.89953 69.7812 2.8514C69.7452 2.83937 69.7211 2.83937 69.685 2.82734C69.5647 2.79124 69.4444 2.76718 69.3241 2.76718H69.3L63.3084 3.00781C62.6587 3.03187 62.1655 3.57328 62.1895 4.21093C62.2136 4.83656 62.7309 5.32984 63.3566 5.32984H63.4047L66.4125 5.22156L53.3345 18.2995H40.2566C39.9437 18.2995 39.655 18.4198 39.4264 18.6364L25.8672 32.1956C25.41 32.6528 25.41 33.3867 25.8672 33.8439C26.0958 34.0725 26.3966 34.1928 26.6853 34.1928Z" fill="#FF8201"/>
</g>
</g>
<defs>
<clipPath id="clip0_55_296">
<rect width="77" height="77" fill="white"/>
</clipPath>
</defs>
</svg>
