<svg width="20" height="20" viewBox="0 0 20 20" fill="none" xmlns="http://www.w3.org/2000/svg">
<path id="Vector" d="M10 20C8.6237 20 7.32741 19.737 6.11111 19.2111C4.89481 18.6852 3.83556 17.9704 2.93333 17.0667C2.02963 16.1652 1.31481 15.1059 0.788889 13.8889C0.262963 12.6726 0 11.3763 0 10C0 8.62 0.262963 7.32259 0.788889 6.10778C1.31556 4.89296 2.03037 3.83444 2.93333 2.93222C3.83481 2.03 4.89407 1.31593 6.11111 0.79C7.32741 0.263333 8.6237 0 10 0C11.38 0 12.6774 0.262963 13.8922 0.788889C15.107 1.31556 16.1656 2.03037 17.0678 2.93333C17.97 3.83556 18.6841 4.8937 19.21 6.10778C19.7367 7.32259 20 8.62 20 10C20 11.3763 19.737 12.6726 19.2111 13.8889C18.6852 15.1052 17.9704 16.1644 17.0667 17.0667C16.1644 17.9696 15.1063 18.6844 13.8922 19.2111C12.6774 19.737 11.38 20 10 20ZM10 18.8978C10.6519 18.06 11.1896 17.2374 11.6133 16.43C12.0363 15.6226 12.3804 14.7189 12.6456 13.7189H7.35445C7.64778 14.7752 7.99889 15.707 8.40778 16.5144C8.81667 17.3219 9.34741 18.1163 10 18.8978ZM8.58556 18.7311C8.06704 18.12 7.5937 17.3644 7.16556 16.4644C6.73741 15.5652 6.41889 14.6496 6.21 13.7178H1.94778C2.58481 15.1 3.48741 16.2333 4.65556 17.1178C5.82444 18.0022 7.13407 18.54 8.58444 18.7311H8.58556ZM11.4144 18.7311C12.8648 18.54 14.1744 18.0022 15.3433 17.1178C16.5122 16.2333 17.4148 15.1 18.0511 13.7178H13.7911C13.5096 14.6637 13.1552 15.5867 12.7278 16.4867C12.2996 17.3859 11.8619 18.1341 11.4144 18.7311ZM1.49556 12.6067H5.97889C5.89444 12.1511 5.83519 11.707 5.80111 11.2744C5.76556 10.8419 5.74778 10.417 5.74778 10C5.74778 9.58296 5.76519 9.15815 5.8 8.72556C5.83482 8.29296 5.89407 7.84852 5.97778 7.39222H1.49667C1.37593 7.77741 1.28148 8.19704 1.21333 8.65111C1.14519 9.10519 1.11111 9.55482 1.11111 10C1.11111 10.4459 1.14481 10.8956 1.21222 11.3489C1.28037 11.803 1.37482 12.2222 1.49556 12.6067ZM7.09 12.6067H12.91C12.9944 12.1511 13.0537 11.7141 13.0878 11.2956C13.1233 10.8778 13.1411 10.4459 13.1411 10C13.1411 9.55407 13.1237 9.12222 13.0889 8.70444C13.0541 8.28593 12.9948 7.84889 12.9111 7.39333H7.08889C7.00519 7.84889 6.94593 8.28593 6.91111 8.70444C6.8763 9.12222 6.85889 9.55407 6.85889 10C6.85889 10.4459 6.8763 10.8778 6.91111 11.2956C6.94593 11.7141 7.0063 12.1511 7.09 12.6067ZM14.0211 12.6067H18.5044C18.6252 12.2215 18.7196 11.8022 18.7878 11.3489C18.8559 10.8956 18.8896 10.4459 18.8889 10C18.8889 9.55407 18.8552 9.10445 18.7878 8.65111C18.7196 8.19704 18.6252 7.77778 18.5044 7.39333H14.0211C14.1056 7.84889 14.1648 8.29296 14.1989 8.72556C14.2344 9.15815 14.2522 9.58296 14.2522 10C14.2522 10.417 14.2348 10.8419 14.2 11.2744C14.1652 11.707 14.1059 12.1515 14.0222 12.6078L14.0211 12.6067ZM13.7911 6.28222H18.0511C17.4 4.87185 16.5081 3.73852 15.3756 2.88222C14.2422 2.02593 12.9219 1.48148 11.4144 1.24889C11.933 1.93037 12.3993 2.71037 12.8133 3.58889C13.2267 4.46667 13.5526 5.36445 13.7911 6.28222ZM7.35445 6.28222H12.6456C12.3522 5.23926 11.9904 4.2963 11.56 3.45333C11.1304 2.60963 10.6104 1.82593 10 1.10222C9.39037 1.82593 8.87037 2.60963 8.44 3.45333C8.01037 4.2963 7.64852 5.23926 7.35445 6.28222ZM1.94889 6.28222H6.20889C6.44741 5.36445 6.77333 4.46667 7.18667 3.58889C7.60074 2.71037 8.06704 1.93 8.58556 1.24778C7.06407 1.48111 5.74037 2.02926 4.61444 2.89222C3.48852 3.75593 2.59963 4.88556 1.94778 6.28111L1.94889 6.28222Z" fill="#FF8201"/>
</svg>
