<svg width="19" height="20" viewBox="0 0 19 20" fill="none" xmlns="http://www.w3.org/2000/svg">
<path id="Vector" d="M18.3031 16.947C18.5496 17.1935 18.6881 17.528 18.6881 17.8767C18.6881 18.2254 18.5496 18.5598 18.3031 18.8063C18.0565 19.0529 17.7221 19.1914 17.3734 19.1914C17.0247 19.1914 16.6903 19.0529 16.4437 18.8063L9.49946 11.8599L2.55306 18.8042C2.30649 19.0507 1.97207 19.1892 1.62337 19.1892C1.27467 19.1892 0.940252 19.0507 0.693683 18.8042C0.447115 18.5576 0.308594 18.2232 0.308594 17.8745C0.308594 17.5258 0.447115 17.1913 0.693683 16.9448L7.64009 10.0006L0.69587 3.05415C0.449302 2.80758 0.310781 2.47316 0.310781 2.12446C0.310781 1.77576 0.449302 1.44135 0.69587 1.19478C0.942439 0.948208 1.27686 0.809687 1.62556 0.809687C1.97426 0.809687 2.30868 0.948208 2.55525 1.19478L9.49946 8.14118L16.4459 1.19368C16.6924 0.947114 17.0269 0.808594 17.3756 0.808594C17.7243 0.808594 18.0587 0.947114 18.3052 1.19368C18.5518 1.44025 18.6903 1.77467 18.6903 2.12337C18.6903 2.47207 18.5518 2.80649 18.3052 3.05306L11.3588 10.0006L18.3031 16.947Z" fill="#575555"/>
</svg>
